<svg width="1440" height="809" viewBox="0 0 1440 809" fill="none" xmlns="http://www.w3.org/2000/svg">
<g filter="url(#filter0_f_2079_19748)">
<ellipse cx="720.5" cy="383" rx="606.5" ry="183" fill="url(#paint0_radial_2079_19748)" fill-opacity="0.2"/>
</g>
<g filter="url(#filter1_f_2079_19748)">
<ellipse cx="696" cy="714" rx="488" ry="265" fill="url(#paint1_radial_2079_19748)" fill-opacity="0.2"/>
</g>
<g filter="url(#filter2_f_2079_19748)">
<ellipse cx="696" cy="744" rx="396" ry="215" fill="url(#paint2_radial_2079_19748)" fill-opacity="0.5"/>
</g>
<g filter="url(#filter3_f_2079_19748)">
<ellipse cx="720" cy="792.5" rx="355" ry="192.5" fill="url(#paint3_radial_2079_19748)" fill-opacity="0.5"/>
</g>
<g filter="url(#filter4_f_2079_19748)">
<ellipse cx="720" cy="805.5" rx="331" ry="179.5" fill="url(#paint4_radial_2079_19748)"/>
</g>
<g opacity="0.7">
<circle cx="467.738" cy="729.769" r="1.11534" fill="#D1DAD9"/>
<line x1="355.438" y1="583.759" x2="437.209" y2="732.416" stroke="url(#paint5_linear_2079_19748)"/>
<g filter="url(#filter5_f_2079_19748)">
<circle cx="439" cy="734" r="5" fill="#3A73A2"/>
</g>
<g filter="url(#filter6_f_2079_19748)">
<circle cx="437.5" cy="732.5" r="3.5" fill="#407097"/>
</g>
<g filter="url(#filter7_f_2079_19748)">
<circle cx="437.5" cy="732.5" r="1.5" fill="#0C1B29"/>
</g>
<circle cx="437.5" cy="732.5" r="1.5" fill="#0C1B29"/>
<line x1="1142.3" y1="566.146" x2="1084.68" y2="754.711" stroke="url(#paint6_linear_2079_19748)"/>
<g filter="url(#filter8_f_2079_19748)">
<circle cx="1084.32" cy="757.071" r="5" transform="rotate(45 1084.32 757.071)" fill="#3A73A2"/>
</g>
<g filter="url(#filter9_f_2079_19748)">
<circle cx="1084.32" cy="754.95" r="3.5" transform="rotate(45 1084.32 754.95)" fill="#407097"/>
</g>
<g filter="url(#filter10_f_2079_19748)">
<circle cx="1084.32" cy="754.949" r="1.5" transform="rotate(45 1084.32 754.949)" fill="#0C1B29"/>
</g>
<circle cx="1084.32" cy="754.949" r="1.5" transform="rotate(45 1084.32 754.949)" fill="#0C1B29"/>
<circle cx="622.213" cy="800.592" r="1.11534" fill="#D1DAD9"/>
<circle cx="535.219" cy="734.788" r="1.11534" fill="#D1DAD9"/>
<circle cx="450.451" cy="764.901" r="1.11534" fill="#D1DAD9"/>
<circle cx="553.062" cy="767.133" r="0.55767" fill="#D1DAD9"/>
<circle cx="527.409" cy="794.457" r="0.55767" fill="#D1DAD9"/>
<circle cx="561.427" cy="729.769" r="0.55767" fill="#D1DAD9"/>
<circle cx="567.562" cy="802.266" r="0.55767" fill="#D1DAD9"/>
<circle cx="512.909" cy="766.017" r="0.55767" fill="#D1DAD9"/>
<circle cx="471.085" cy="800.592" r="0.55767" fill="#D1DAD9"/>
<circle cx="516.814" cy="703.558" r="0.55767" fill="#D1DAD9"/>
<circle cx="466.065" cy="776.612" r="1.11534" fill="#D1DAD9"/>
<circle cx="588.195" cy="796.131" r="1.11534" fill="#D1DAD9"/>
<circle cx="504.545" cy="708.577" r="1.11534" fill="#D1DAD9"/>
<circle cx="913.402" cy="729.769" r="1.11534" fill="#D1DAD9"/>
<circle cx="1067.88" cy="800.592" r="1.11534" fill="#D1DAD9"/>
<circle cx="980.883" cy="734.788" r="1.11534" fill="#D1DAD9"/>
<circle cx="896.115" cy="764.901" r="1.11534" fill="#D1DAD9"/>
<circle cx="998.726" cy="767.133" r="0.55767" fill="#D1DAD9"/>
<circle cx="973.073" cy="794.457" r="0.55767" fill="#D1DAD9"/>
<circle cx="1007.09" cy="729.769" r="0.55767" fill="#D1DAD9"/>
<circle cx="1013.23" cy="802.266" r="0.55767" fill="#D1DAD9"/>
<circle cx="958.573" cy="766.017" r="0.55767" fill="#D1DAD9"/>
<circle cx="916.749" cy="800.592" r="0.55767" fill="#D1DAD9"/>
<circle cx="962.478" cy="703.558" r="0.55767" fill="#D1DAD9"/>
<circle cx="911.729" cy="776.612" r="1.11534" fill="#D1DAD9"/>
<circle cx="1033.86" cy="796.131" r="1.11534" fill="#D1DAD9"/>
<circle cx="950.209" cy="708.577" r="1.11534" fill="#D1DAD9"/>
<circle cx="326.834" cy="792.796" r="0.667786" fill="#D1DAD9" fill-opacity="0.6"/>
<circle cx="336.851" cy="748.054" r="0.667786" fill="#D1DAD9" fill-opacity="0.6"/>
<circle cx="278.752" cy="791.46" r="0.667786" fill="#D1DAD9" fill-opacity="0.6"/>
<circle cx="283.426" cy="716.668" r="0.667786" fill="#D1DAD9" fill-opacity="0.6"/>
<circle cx="707.903" cy="749.629" r="1.15118" fill="#D1DAD9" fill-opacity="0.7"/>
<circle cx="777.55" cy="754.808" r="1.15118" fill="#D1DAD9" fill-opacity="0.7"/>
<circle cx="690.059" cy="785.89" r="1.15118" fill="#D1DAD9" fill-opacity="0.7"/>
<circle cx="795.968" cy="788.193" r="0.575588" fill="#D1DAD9" fill-opacity="0.7"/>
<circle cx="754.527" cy="787.041" r="0.575588" fill="#D1DAD9" fill-opacity="0.7"/>
<circle cx="758.556" cy="722.576" r="0.575588" fill="#D1DAD9" fill-opacity="0.7"/>
<circle cx="706.177" cy="797.977" r="1.15118" fill="#D1DAD9" fill-opacity="0.7"/>
<circle cx="745.891" cy="727.756" r="1.15118" fill="#D1DAD9" fill-opacity="0.7"/>
<circle cx="996.297" cy="781.496" r="1.29675" fill="#D1DAD9" fill-opacity="0.5"/>
<circle cx="1115.6" cy="784.09" r="0.648377" fill="#D1DAD9" fill-opacity="0.5"/>
<circle cx="1125.33" cy="740.648" r="0.648377" fill="#D1DAD9" fill-opacity="0.5"/>
<circle cx="1068.92" cy="782.793" r="0.648377" fill="#D1DAD9" fill-opacity="0.5"/>
<circle cx="1014.45" cy="795.112" r="1.29675" fill="#D1DAD9" fill-opacity="0.5"/>
<circle cx="1344" cy="671.993" r="1.29675" fill="#D1DAD9" fill-opacity="0.5"/>
<circle cx="1144.3" cy="630.496" r="1.29675" fill="#D1DAD9" fill-opacity="0.5"/>
<circle cx="1232.47" cy="707.005" r="0.648377" fill="#D1DAD9" fill-opacity="0.5"/>
<circle cx="1263.6" cy="633.09" r="0.648377" fill="#D1DAD9" fill-opacity="0.5"/>
<circle cx="1233.77" cy="664.86" r="0.648377" fill="#D1DAD9" fill-opacity="0.5"/>
<circle cx="1273.33" cy="589.648" r="0.648377" fill="#D1DAD9" fill-opacity="0.5"/>
<circle cx="1280.46" cy="673.937" r="0.648377" fill="#D1DAD9" fill-opacity="0.5"/>
<circle cx="1216.92" cy="631.793" r="0.648377" fill="#D1DAD9" fill-opacity="0.5"/>
<circle cx="1208.49" cy="719.324" r="0.648377" fill="#D1DAD9" fill-opacity="0.5"/>
<circle cx="1290.18" cy="740.721" r="0.648377" fill="#D1DAD9" fill-opacity="0.5"/>
<circle cx="1168.29" cy="671.992" r="0.648377" fill="#D1DAD9" fill-opacity="0.5"/>
<circle cx="1162.45" cy="644.112" r="1.29675" fill="#D1DAD9" fill-opacity="0.5"/>
<circle cx="1257.76" cy="736.182" r="1.29675" fill="#D1DAD9" fill-opacity="0.5"/>
<circle cx="1304.45" cy="666.806" r="1.29675" fill="#D1DAD9" fill-opacity="0.5"/>
</g>
<mask id="mask0_2079_19748" style="mask-type:alpha" maskUnits="userSpaceOnUse" x="234" y="578" width="971" height="241">
<rect x="234" y="578" width="971" height="241" fill="url(#paint7_linear_2079_19748)"/>
</mask>
<g mask="url(#mask0_2079_19748)">
<g filter="url(#filter11_f_2079_19748)">
<ellipse cx="714.5" cy="815.5" rx="231.5" ry="52.5" fill="#CCB395"/>
</g>
<g filter="url(#filter12_f_2079_19748)">
<ellipse cx="714.5" cy="815.5" rx="231.5" ry="52.5" fill="#CCB395"/>
</g>
<g filter="url(#filter13_f_2079_19748)">
<ellipse cx="714.5" cy="815.5" rx="231.5" ry="52.5" fill="#CCB395"/>
</g>
<g filter="url(#filter14_f_2079_19748)">
<ellipse cx="724.5" cy="848.501" rx="293.5" ry="86.5" fill="#CCB395"/>
</g>
<g filter="url(#filter15_f_2079_19748)">
<path d="M719.5 765.001C767.654 765.001 813.991 768.451 857.323 774.823C813.77 769.089 767.483 766.001 719.5 766.001C671.517 766.001 625.229 769.089 581.676 774.823C625.008 768.451 671.345 765.001 719.5 765.001Z" fill="#CCB395"/>
</g>
<mask id="mask1_2079_19748" style="mask-type:alpha" maskUnits="userSpaceOnUse" x="282" y="766" width="875" height="389">
<ellipse cx="719.5" cy="960.001" rx="437.5" ry="194" fill="#D9D9D9"/>
</mask>
<g mask="url(#mask1_2079_19748)">
<g filter="url(#filter16_f_2079_19748)">
<path d="M719.5 766.001C939.855 766.001 1122.16 838.24 1152.55 932.224C1084.36 858.882 916.176 807.001 719.5 807.001C522.824 807.001 354.637 858.882 286.453 932.224C316.842 838.24 499.145 766.001 719.5 766.001Z" fill="#CCB395"/>
</g>
<g filter="url(#filter17_f_2079_19748)">
<path d="M719.5 766.001C904.714 766.001 1063.04 817.037 1126.88 889.124C1047.49 828.225 894.813 787.001 719.5 787.001C544.187 787.001 391.511 828.225 312.12 889.124C375.955 817.037 534.286 766.001 719.5 766.001Z" fill="#CCB395"/>
</g>
<g filter="url(#filter18_f_2079_19748)">
<path d="M719.502 766.001C916.458 766.001 1083.02 823.713 1137.87 903.081C1062.19 837.301 903.281 792.001 719.502 792.001C535.722 792.001 376.817 837.301 301.137 903.081C355.988 823.713 522.545 766.001 719.502 766.001Z" fill="#CCB395"/>
</g>
<g filter="url(#filter19_f_2079_19748)">
<path d="M719.5 766.001C842.06 766.001 952.849 788.348 1032.28 824.354C949.633 792.446 839.905 773.001 719.5 773.001C599.095 773.001 489.367 792.446 406.725 824.354C486.151 788.348 596.94 766.001 719.5 766.001Z" fill="#CCB395"/>
</g>
<g filter="url(#filter20_f_2079_19748)">
<path d="M719.5 766.001C842.06 766.001 952.849 788.348 1032.28 824.354C949.633 792.446 839.905 773.001 719.5 773.001C599.095 773.001 489.367 792.446 406.725 824.354C486.151 788.348 596.94 766.001 719.5 766.001Z" fill="#CCB395"/>
</g>
<g filter="url(#filter21_f_2079_19748)">
<path d="M719.5 766.001C842.06 766.001 952.849 788.348 1032.28 824.354C949.633 792.446 839.905 773.001 719.5 773.001C599.095 773.001 489.367 792.446 406.725 824.354C486.151 788.348 596.94 766.001 719.5 766.001Z" fill="#CCB395"/>
</g>
<g filter="url(#filter22_f_2079_19748)">
<path d="M719.5 766.001C842.06 766.001 952.849 788.348 1032.28 824.354C949.633 792.446 839.905 773.001 719.5 773.001C599.095 773.001 489.367 792.446 406.725 824.354C486.151 788.348 596.94 766.001 719.5 766.001Z" fill="#CCB395"/>
</g>
<g filter="url(#filter23_f_2079_19748)">
<path d="M719.5 766.001C842.06 766.001 952.849 788.348 1032.28 824.354C949.633 792.446 839.905 773.001 719.5 773.001C599.095 773.001 489.367 792.446 406.725 824.354C486.151 788.348 596.94 766.001 719.5 766.001Z" fill="#CCB395"/>
</g>
<g filter="url(#filter24_f_2079_19748)">
<path d="M719.5 765.001C842.06 765.001 952.849 787.348 1032.28 823.354C949.633 791.446 839.905 772.001 719.5 772.001C599.095 772.001 489.367 791.446 406.725 823.354C486.151 787.348 596.94 765.001 719.5 765.001Z" fill="#CCB395"/>
</g>
<g filter="url(#filter25_f_2079_19748)">
<path d="M719.5 766.001C802.261 766.001 879.654 776.191 945.647 793.896C878.691 778.036 801.576 769.001 719.5 769.001C637.423 769.001 560.308 778.036 493.352 793.896C559.345 776.191 636.739 766.001 719.5 766.001Z" fill="#CCB395"/>
</g>
<g filter="url(#filter26_f_2079_19748)">
<path d="M719.5 766.001C802.261 766.001 879.654 776.191 945.647 793.896C878.691 778.036 801.576 769.001 719.5 769.001C637.423 769.001 560.308 778.036 493.352 793.896C559.345 776.191 636.739 766.001 719.5 766.001Z" fill="#CCB395"/>
</g>
<g filter="url(#filter27_f_2079_19748)">
<path d="M719.5 766.001C787.421 766.001 851.727 772.865 909.083 785.112C851.175 774.115 787.016 768.001 719.5 768.001C651.984 768.001 587.825 774.115 529.917 785.112C587.273 772.865 651.579 766.001 719.5 766.001Z" fill="#CCB395"/>
</g>
<g filter="url(#filter28_f_2079_19748)">
<path d="M719.5 766.001C787.421 766.001 851.727 772.865 909.083 785.112C851.175 774.115 787.016 768.001 719.5 768.001C651.984 768.001 587.825 774.115 529.917 785.112C587.273 772.865 651.579 766.001 719.5 766.001Z" fill="#CCB395"/>
</g>
<g filter="url(#filter29_f_2079_19748)">
<path d="M719.5 765.001C787.421 765.001 851.727 771.865 909.083 784.112C851.175 773.115 787.016 767.001 719.5 767.001C651.984 767.001 587.825 773.115 529.917 784.112C587.273 771.865 651.579 765.001 719.5 765.001Z" fill="#CCB395"/>
</g>
<g filter="url(#filter30_f_2079_19748)">
<path d="M719.5 766.001C767.654 766.001 813.991 769.451 857.323 775.823C813.77 770.089 767.483 767.001 719.5 767.001C671.517 767.001 625.229 770.089 581.676 775.823C625.008 769.451 671.345 766.001 719.5 766.001Z" fill="#CCB395"/>
</g>
<g filter="url(#filter31_f_2079_19748)">
<path d="M719.5 766.001C767.654 766.001 813.991 769.451 857.323 775.823C813.77 770.089 767.483 767.001 719.5 767.001C671.517 767.001 625.229 770.089 581.676 775.823C625.008 769.451 671.345 766.001 719.5 766.001Z" fill="#CCB395"/>
</g>
<g filter="url(#filter32_f_2079_19748)">
<path d="M719.5 766.001C767.654 766.001 813.991 769.451 857.323 775.823C813.77 770.089 767.483 767.001 719.5 767.001C671.517 767.001 625.229 770.089 581.676 775.823C625.008 769.451 671.345 766.001 719.5 766.001Z" fill="#CCB395"/>
</g>
<g filter="url(#filter33_f_2079_19748)">
<path d="M719.5 766.001C767.654 766.001 813.991 769.451 857.323 775.823C813.77 770.089 767.483 767.001 719.5 767.001C671.517 767.001 625.229 770.089 581.676 775.823C625.008 769.451 671.345 766.001 719.5 766.001Z" fill="#CCB395"/>
</g>
<g filter="url(#filter34_f_2079_19748)">
<path d="M719.5 766.001C767.654 766.001 813.991 769.451 857.323 775.823C813.77 770.089 767.483 767.001 719.5 767.001C671.517 767.001 625.229 770.089 581.676 775.823C625.008 769.451 671.345 766.001 719.5 766.001Z" fill="#CCB395"/>
</g>
</g>
</g>
<defs>
<filter id="filter0_f_2079_19748" x="-86" y="0" width="1613" height="766" filterUnits="userSpaceOnUse" color-interpolation-filters="sRGB">
<feFlood flood-opacity="0" result="BackgroundImageFix"/>
<feBlend mode="normal" in="SourceGraphic" in2="BackgroundImageFix" result="shape"/>
<feGaussianBlur stdDeviation="100" result="effect1_foregroundBlur_2079_19748"/>
</filter>
<filter id="filter1_f_2079_19748" x="-92" y="149" width="1576" height="1130" filterUnits="userSpaceOnUse" color-interpolation-filters="sRGB">
<feFlood flood-opacity="0" result="BackgroundImageFix"/>
<feBlend mode="normal" in="SourceGraphic" in2="BackgroundImageFix" result="shape"/>
<feGaussianBlur stdDeviation="150" result="effect1_foregroundBlur_2079_19748"/>
</filter>
<filter id="filter2_f_2079_19748" x="-100" y="129" width="1592" height="1230" filterUnits="userSpaceOnUse" color-interpolation-filters="sRGB">
<feFlood flood-opacity="0" result="BackgroundImageFix"/>
<feBlend mode="normal" in="SourceGraphic" in2="BackgroundImageFix" result="shape"/>
<feGaussianBlur stdDeviation="200" result="effect1_foregroundBlur_2079_19748"/>
</filter>
<filter id="filter3_f_2079_19748" x="-35" y="200" width="1510" height="1185" filterUnits="userSpaceOnUse" color-interpolation-filters="sRGB">
<feFlood flood-opacity="0" result="BackgroundImageFix"/>
<feBlend mode="normal" in="SourceGraphic" in2="BackgroundImageFix" result="shape"/>
<feGaussianBlur stdDeviation="200" result="effect1_foregroundBlur_2079_19748"/>
</filter>
<filter id="filter4_f_2079_19748" x="89" y="326" width="1262" height="959" filterUnits="userSpaceOnUse" color-interpolation-filters="sRGB">
<feFlood flood-opacity="0" result="BackgroundImageFix"/>
<feBlend mode="normal" in="SourceGraphic" in2="BackgroundImageFix" result="shape"/>
<feGaussianBlur stdDeviation="150" result="effect1_foregroundBlur_2079_19748"/>
</filter>
<filter id="filter5_f_2079_19748" x="414" y="709" width="50" height="50" filterUnits="userSpaceOnUse" color-interpolation-filters="sRGB">
<feFlood flood-opacity="0" result="BackgroundImageFix"/>
<feBlend mode="normal" in="SourceGraphic" in2="BackgroundImageFix" result="shape"/>
<feGaussianBlur stdDeviation="10" result="effect1_foregroundBlur_2079_19748"/>
</filter>
<filter id="filter6_f_2079_19748" x="424" y="719" width="27" height="27" filterUnits="userSpaceOnUse" color-interpolation-filters="sRGB">
<feFlood flood-opacity="0" result="BackgroundImageFix"/>
<feBlend mode="normal" in="SourceGraphic" in2="BackgroundImageFix" result="shape"/>
<feGaussianBlur stdDeviation="5" result="effect1_foregroundBlur_2079_19748"/>
</filter>
<filter id="filter7_f_2079_19748" x="435" y="730" width="5" height="5" filterUnits="userSpaceOnUse" color-interpolation-filters="sRGB">
<feFlood flood-opacity="0" result="BackgroundImageFix"/>
<feBlend mode="normal" in="SourceGraphic" in2="BackgroundImageFix" result="shape"/>
<feGaussianBlur stdDeviation="0.5" result="effect1_foregroundBlur_2079_19748"/>
</filter>
<filter id="filter8_f_2079_19748" x="1059.32" y="732.071" width="50" height="50" filterUnits="userSpaceOnUse" color-interpolation-filters="sRGB">
<feFlood flood-opacity="0" result="BackgroundImageFix"/>
<feBlend mode="normal" in="SourceGraphic" in2="BackgroundImageFix" result="shape"/>
<feGaussianBlur stdDeviation="10" result="effect1_foregroundBlur_2079_19748"/>
</filter>
<filter id="filter9_f_2079_19748" x="1070.82" y="741.45" width="27" height="27" filterUnits="userSpaceOnUse" color-interpolation-filters="sRGB">
<feFlood flood-opacity="0" result="BackgroundImageFix"/>
<feBlend mode="normal" in="SourceGraphic" in2="BackgroundImageFix" result="shape"/>
<feGaussianBlur stdDeviation="5" result="effect1_foregroundBlur_2079_19748"/>
</filter>
<filter id="filter10_f_2079_19748" x="1081.82" y="752.449" width="5" height="5" filterUnits="userSpaceOnUse" color-interpolation-filters="sRGB">
<feFlood flood-opacity="0" result="BackgroundImageFix"/>
<feBlend mode="normal" in="SourceGraphic" in2="BackgroundImageFix" result="shape"/>
<feGaussianBlur stdDeviation="0.5" result="effect1_foregroundBlur_2079_19748"/>
</filter>
<filter id="filter11_f_2079_19748" x="473" y="753" width="483" height="125" filterUnits="userSpaceOnUse" color-interpolation-filters="sRGB">
<feFlood flood-opacity="0" result="BackgroundImageFix"/>
<feBlend mode="normal" in="SourceGraphic" in2="BackgroundImageFix" result="shape"/>
<feGaussianBlur stdDeviation="5" result="effect1_foregroundBlur_2079_19748"/>
</filter>
<filter id="filter12_f_2079_19748" x="473" y="753" width="483" height="125" filterUnits="userSpaceOnUse" color-interpolation-filters="sRGB">
<feFlood flood-opacity="0" result="BackgroundImageFix"/>
<feBlend mode="normal" in="SourceGraphic" in2="BackgroundImageFix" result="shape"/>
<feGaussianBlur stdDeviation="5" result="effect1_foregroundBlur_2079_19748"/>
</filter>
<filter id="filter13_f_2079_19748" x="473" y="753" width="483" height="125" filterUnits="userSpaceOnUse" color-interpolation-filters="sRGB">
<feFlood flood-opacity="0" result="BackgroundImageFix"/>
<feBlend mode="normal" in="SourceGraphic" in2="BackgroundImageFix" result="shape"/>
<feGaussianBlur stdDeviation="5" result="effect1_foregroundBlur_2079_19748"/>
</filter>
<filter id="filter14_f_2079_19748" x="411" y="742.001" width="627" height="213" filterUnits="userSpaceOnUse" color-interpolation-filters="sRGB">
<feFlood flood-opacity="0" result="BackgroundImageFix"/>
<feBlend mode="normal" in="SourceGraphic" in2="BackgroundImageFix" result="shape"/>
<feGaussianBlur stdDeviation="10" result="effect1_foregroundBlur_2079_19748"/>
</filter>
<filter id="filter15_f_2079_19748" x="580.676" y="764.001" width="277.647" height="11.8223" filterUnits="userSpaceOnUse" color-interpolation-filters="sRGB">
<feFlood flood-opacity="0" result="BackgroundImageFix"/>
<feBlend mode="normal" in="SourceGraphic" in2="BackgroundImageFix" result="shape"/>
<feGaussianBlur stdDeviation="0.5" result="effect1_foregroundBlur_2079_19748"/>
</filter>
<filter id="filter16_f_2079_19748" x="236.453" y="716.001" width="966.094" height="266.223" filterUnits="userSpaceOnUse" color-interpolation-filters="sRGB">
<feFlood flood-opacity="0" result="BackgroundImageFix"/>
<feBlend mode="normal" in="SourceGraphic" in2="BackgroundImageFix" result="shape"/>
<feGaussianBlur stdDeviation="25" result="effect1_foregroundBlur_2079_19748"/>
</filter>
<filter id="filter17_f_2079_19748" x="272.12" y="726.001" width="894.76" height="203.123" filterUnits="userSpaceOnUse" color-interpolation-filters="sRGB">
<feFlood flood-opacity="0" result="BackgroundImageFix"/>
<feBlend mode="normal" in="SourceGraphic" in2="BackgroundImageFix" result="shape"/>
<feGaussianBlur stdDeviation="20" result="effect1_foregroundBlur_2079_19748"/>
</filter>
<filter id="filter18_f_2079_19748" x="251.137" y="716.001" width="936.729" height="237.08" filterUnits="userSpaceOnUse" color-interpolation-filters="sRGB">
<feFlood flood-opacity="0" result="BackgroundImageFix"/>
<feBlend mode="normal" in="SourceGraphic" in2="BackgroundImageFix" result="shape"/>
<feGaussianBlur stdDeviation="25" result="effect1_foregroundBlur_2079_19748"/>
</filter>
<filter id="filter19_f_2079_19748" x="386.725" y="746.001" width="665.551" height="98.3535" filterUnits="userSpaceOnUse" color-interpolation-filters="sRGB">
<feFlood flood-opacity="0" result="BackgroundImageFix"/>
<feBlend mode="normal" in="SourceGraphic" in2="BackgroundImageFix" result="shape"/>
<feGaussianBlur stdDeviation="10" result="effect1_foregroundBlur_2079_19748"/>
</filter>
<filter id="filter20_f_2079_19748" x="396.725" y="756.001" width="645.551" height="78.3535" filterUnits="userSpaceOnUse" color-interpolation-filters="sRGB">
<feFlood flood-opacity="0" result="BackgroundImageFix"/>
<feBlend mode="normal" in="SourceGraphic" in2="BackgroundImageFix" result="shape"/>
<feGaussianBlur stdDeviation="5" result="effect1_foregroundBlur_2079_19748"/>
</filter>
<filter id="filter21_f_2079_19748" x="396.725" y="756.001" width="645.551" height="78.3535" filterUnits="userSpaceOnUse" color-interpolation-filters="sRGB">
<feFlood flood-opacity="0" result="BackgroundImageFix"/>
<feBlend mode="normal" in="SourceGraphic" in2="BackgroundImageFix" result="shape"/>
<feGaussianBlur stdDeviation="5" result="effect1_foregroundBlur_2079_19748"/>
</filter>
<filter id="filter22_f_2079_19748" x="396.725" y="756.001" width="645.551" height="78.3535" filterUnits="userSpaceOnUse" color-interpolation-filters="sRGB">
<feFlood flood-opacity="0" result="BackgroundImageFix"/>
<feBlend mode="normal" in="SourceGraphic" in2="BackgroundImageFix" result="shape"/>
<feGaussianBlur stdDeviation="5" result="effect1_foregroundBlur_2079_19748"/>
</filter>
<filter id="filter23_f_2079_19748" x="396.725" y="756.001" width="645.551" height="78.3535" filterUnits="userSpaceOnUse" color-interpolation-filters="sRGB">
<feFlood flood-opacity="0" result="BackgroundImageFix"/>
<feBlend mode="normal" in="SourceGraphic" in2="BackgroundImageFix" result="shape"/>
<feGaussianBlur stdDeviation="5" result="effect1_foregroundBlur_2079_19748"/>
</filter>
<filter id="filter24_f_2079_19748" x="402.725" y="761.001" width="633.551" height="66.3535" filterUnits="userSpaceOnUse" color-interpolation-filters="sRGB">
<feFlood flood-opacity="0" result="BackgroundImageFix"/>
<feBlend mode="normal" in="SourceGraphic" in2="BackgroundImageFix" result="shape"/>
<feGaussianBlur stdDeviation="2" result="effect1_foregroundBlur_2079_19748"/>
</filter>
<filter id="filter25_f_2079_19748" x="473.352" y="746.001" width="492.296" height="67.8945" filterUnits="userSpaceOnUse" color-interpolation-filters="sRGB">
<feFlood flood-opacity="0" result="BackgroundImageFix"/>
<feBlend mode="normal" in="SourceGraphic" in2="BackgroundImageFix" result="shape"/>
<feGaussianBlur stdDeviation="10" result="effect1_foregroundBlur_2079_19748"/>
</filter>
<filter id="filter26_f_2079_19748" x="488.352" y="761.001" width="462.296" height="37.8945" filterUnits="userSpaceOnUse" color-interpolation-filters="sRGB">
<feFlood flood-opacity="0" result="BackgroundImageFix"/>
<feBlend mode="normal" in="SourceGraphic" in2="BackgroundImageFix" result="shape"/>
<feGaussianBlur stdDeviation="2.5" result="effect1_foregroundBlur_2079_19748"/>
</filter>
<filter id="filter27_f_2079_19748" x="526.917" y="763.001" width="385.166" height="25.1113" filterUnits="userSpaceOnUse" color-interpolation-filters="sRGB">
<feFlood flood-opacity="0" result="BackgroundImageFix"/>
<feBlend mode="normal" in="SourceGraphic" in2="BackgroundImageFix" result="shape"/>
<feGaussianBlur stdDeviation="1.5" result="effect1_foregroundBlur_2079_19748"/>
</filter>
<filter id="filter28_f_2079_19748" x="515.917" y="752.001" width="407.166" height="47.1113" filterUnits="userSpaceOnUse" color-interpolation-filters="sRGB">
<feFlood flood-opacity="0" result="BackgroundImageFix"/>
<feBlend mode="normal" in="SourceGraphic" in2="BackgroundImageFix" result="shape"/>
<feGaussianBlur stdDeviation="7" result="effect1_foregroundBlur_2079_19748"/>
</filter>
<filter id="filter29_f_2079_19748" x="526.917" y="762.001" width="385.166" height="25.1113" filterUnits="userSpaceOnUse" color-interpolation-filters="sRGB">
<feFlood flood-opacity="0" result="BackgroundImageFix"/>
<feBlend mode="normal" in="SourceGraphic" in2="BackgroundImageFix" result="shape"/>
<feGaussianBlur stdDeviation="1.5" result="effect1_foregroundBlur_2079_19748"/>
</filter>
<filter id="filter30_f_2079_19748" x="580.676" y="765.001" width="277.647" height="11.8223" filterUnits="userSpaceOnUse" color-interpolation-filters="sRGB">
<feFlood flood-opacity="0" result="BackgroundImageFix"/>
<feBlend mode="normal" in="SourceGraphic" in2="BackgroundImageFix" result="shape"/>
<feGaussianBlur stdDeviation="0.5" result="effect1_foregroundBlur_2079_19748"/>
</filter>
<filter id="filter31_f_2079_19748" x="580.676" y="765.001" width="277.647" height="11.8223" filterUnits="userSpaceOnUse" color-interpolation-filters="sRGB">
<feFlood flood-opacity="0" result="BackgroundImageFix"/>
<feBlend mode="normal" in="SourceGraphic" in2="BackgroundImageFix" result="shape"/>
<feGaussianBlur stdDeviation="0.5" result="effect1_foregroundBlur_2079_19748"/>
</filter>
<filter id="filter32_f_2079_19748" x="580.676" y="765.001" width="277.647" height="11.8223" filterUnits="userSpaceOnUse" color-interpolation-filters="sRGB">
<feFlood flood-opacity="0" result="BackgroundImageFix"/>
<feBlend mode="normal" in="SourceGraphic" in2="BackgroundImageFix" result="shape"/>
<feGaussianBlur stdDeviation="0.5" result="effect1_foregroundBlur_2079_19748"/>
</filter>
<filter id="filter33_f_2079_19748" x="579.676" y="764.001" width="279.647" height="13.8223" filterUnits="userSpaceOnUse" color-interpolation-filters="sRGB">
<feFlood flood-opacity="0" result="BackgroundImageFix"/>
<feBlend mode="normal" in="SourceGraphic" in2="BackgroundImageFix" result="shape"/>
<feGaussianBlur stdDeviation="1" result="effect1_foregroundBlur_2079_19748"/>
</filter>
<filter id="filter34_f_2079_19748" x="580.676" y="765.001" width="277.647" height="11.8223" filterUnits="userSpaceOnUse" color-interpolation-filters="sRGB">
<feFlood flood-opacity="0" result="BackgroundImageFix"/>
<feBlend mode="normal" in="SourceGraphic" in2="BackgroundImageFix" result="shape"/>
<feGaussianBlur stdDeviation="0.5" result="effect1_foregroundBlur_2079_19748"/>
</filter>
<radialGradient id="paint0_radial_2079_19748" cx="0" cy="0" r="1" gradientUnits="userSpaceOnUse" gradientTransform="translate(720.5 383) rotate(90) scale(183 606.5)">
<stop stop-color="#091A28"/>
<stop offset="1" stop-color="#091A28"/>
</radialGradient>
<radialGradient id="paint1_radial_2079_19748" cx="0" cy="0" r="1" gradientUnits="userSpaceOnUse" gradientTransform="translate(696 714) rotate(90) scale(265 488)">
<stop stop-color="#091A28"/>
<stop offset="1" stop-color="#091A28"/>
</radialGradient>
<radialGradient id="paint2_radial_2079_19748" cx="0" cy="0" r="1" gradientUnits="userSpaceOnUse" gradientTransform="translate(696 744) rotate(90) scale(215 396)">
<stop stop-color="#091A28"/>
<stop offset="1" stop-color="#0B2B46"/>
</radialGradient>
<radialGradient id="paint3_radial_2079_19748" cx="0" cy="0" r="1" gradientUnits="userSpaceOnUse" gradientTransform="translate(720 792.5) rotate(90) scale(192.5 355)">
<stop stop-color="#091A28"/>
<stop offset="1" stop-color="#0B2B46"/>
</radialGradient>
<radialGradient id="paint4_radial_2079_19748" cx="0" cy="0" r="1" gradientUnits="userSpaceOnUse" gradientTransform="translate(720 805.5) rotate(90) scale(179.5 331)">
<stop stop-color="#091A28"/>
<stop offset="1" stop-color="#0B2B46"/>
</radialGradient>
<linearGradient id="paint5_linear_2079_19748" x1="354.562" y1="584.241" x2="436.333" y2="732.898" gradientUnits="userSpaceOnUse">
<stop offset="0.25" stop-color="#286699"/>
<stop offset="1" stop-color="#3371A4"/>
</linearGradient>
<linearGradient id="paint6_linear_2079_19748" x1="1141.35" y1="565.854" x2="1083.72" y2="754.419" gradientUnits="userSpaceOnUse">
<stop offset="0.25" stop-color="#286699"/>
<stop offset="1" stop-color="#3371A4"/>
</linearGradient>
<linearGradient id="paint7_linear_2079_19748" x1="703.5" y1="578" x2="703.5" y2="1141.34" gradientUnits="userSpaceOnUse">
<stop stop-color="white"/>
<stop offset="1" stop-color="white" stop-opacity="0"/>
</linearGradient>
</defs>
</svg>
