<svg width="1440" height="80" viewBox="0 0 1440 80" fill="none" xmlns="http://www.w3.org/2000/svg">
<g clip-path="url(#clip0_2079_19942)">
<rect width="1440" height="80" fill="#FFFAF3"/>
<path d="M1360 71.9997C1360 76.418 1363.58 79.9997 1368 79.9997L1552 79.9997C1556.42 79.9997 1560 83.5814 1560 87.9997L1560 152C1560 156.418 1556.42 160 1552 160L-112 160C-116.418 160 -120 156.418 -120 152L-120 88C-120 83.5817 -116.418 80 -112 80L72 80C76.4183 80 80 76.4182 80 72L80 7.99997C80 3.58169 83.5817 -3.55954e-05 88 -3.63679e-05L1352 -0.000257373C1356.42 -0.000258145 1360 3.58146 1360 7.99974L1360 71.9997Z" fill="#081825"/>
</g>
<defs>
<clipPath id="clip0_2079_19942">
<rect width="1440" height="80" fill="white"/>
</clipPath>
</defs>
</svg>
